<svg xmlns="http://www.w3.org/2000/svg" xmlns:xlink="http://www.w3.org/1999/xlink" width="1080" zoomAndPan="magnify" viewBox="0 0 810 809.999993" height="1080" preserveAspectRatio="xMidYMid meet" version="1.0"><defs><clipPath id="ddd9e92cca"><path d="M 219.519531 464.492188 L 234.648438 464.492188 L 234.648438 467.9375 L 219.519531 467.9375 Z M 219.519531 467.9375 L 223.738281 467.9375 L 223.738281 475.523438 L 219.519531 475.523438 Z M 219.519531 475.523438 L 232.25 475.523438 L 232.25 478.96875 L 219.519531 478.96875 Z M 219.519531 478.96875 L 223.738281 478.96875 L 223.738281 490.21875 L 219.519531 490.21875 Z M 219.519531 478.96875 " clip-rule="nonzero"/></clipPath><clipPath id="ec5feee34a"><path d="M 252.554688 464.160156 L 278.820312 464.160156 L 278.820312 490.566406 L 252.554688 490.566406 Z M 252.554688 464.160156 " clip-rule="nonzero"/></clipPath><clipPath id="1b576e5c79"><path d="M 270.238281 485.636719 C 271.574219 484.863281 272.609375 483.753906 273.359375 482.308594 C 274.109375 480.859375 274.484375 479.195312 274.484375 477.292969 C 274.484375 475.390625 274.109375 473.726562 273.359375 472.296875 C 272.609375 470.867188 271.5625 469.765625 270.238281 469 C 268.914062 468.234375 267.386719 467.859375 265.6875 467.859375 C 263.984375 467.859375 262.46875 468.242188 261.132812 469 C 259.800781 469.757812 258.761719 470.867188 258.011719 472.296875 C 257.261719 473.726562 256.886719 475.390625 256.886719 477.292969 C 256.886719 479.195312 257.261719 480.859375 258.011719 482.308594 C 258.761719 483.753906 259.808594 484.863281 261.132812 485.636719 C 262.460938 486.414062 263.984375 486.808594 265.6875 486.808594 C 267.386719 486.808594 268.902344 486.414062 270.238281 485.636719 M 259.085938 488.777344 C 257.078125 487.652344 255.484375 486.089844 254.316406 484.078125 C 253.148438 482.0625 252.554688 479.8125 252.554688 477.292969 C 252.554688 474.773438 253.136719 472.523438 254.304688 470.527344 C 255.476562 468.527344 257.070312 466.96875 259.085938 465.84375 C 261.097656 464.71875 263.296875 464.160156 265.6875 464.160156 C 268.101562 464.160156 270.316406 464.71875 272.324219 465.84375 C 274.328125 466.96875 275.921875 468.527344 277.082031 470.527344 C 278.242188 472.523438 278.820312 474.78125 278.820312 477.292969 C 278.820312 479.804688 278.242188 482.070312 277.082031 484.085938 C 275.921875 486.101562 274.335938 487.660156 272.332031 488.785156 C 270.324219 489.910156 268.109375 490.46875 265.695312 490.46875 C 263.304688 490.46875 261.097656 489.910156 259.09375 488.785156 " clip-rule="nonzero"/></clipPath><clipPath id="fc222a2fc2"><path d="M 298.316406 464.492188 L 318.484375 464.492188 L 318.484375 490.464844 L 298.316406 490.464844 Z M 298.316406 464.492188 " clip-rule="nonzero"/></clipPath><clipPath id="d6aafe216c"><path d="M 302.539062 464.492188 L 302.539062 480.878906 C 302.539062 482.824219 303.050781 484.296875 304.070312 485.28125 C 305.09375 486.269531 306.523438 486.765625 308.34375 486.765625 C 310.195312 486.765625 311.632812 486.277344 312.652344 485.28125 C 313.671875 484.289062 314.1875 482.832031 314.1875 480.878906 L 314.1875 464.492188 L 318.40625 464.492188 L 318.40625 480.808594 C 318.40625 482.910156 317.953125 484.679688 317.039062 486.136719 C 316.125 487.59375 314.902344 488.675781 313.375 489.390625 C 311.851562 490.105469 310.160156 490.460938 308.308594 490.460938 C 306.460938 490.460938 304.777344 490.105469 303.261719 489.390625 C 301.742188 488.675781 300.539062 487.59375 299.652344 486.136719 C 298.761719 484.679688 298.316406 482.902344 298.316406 480.808594 L 298.316406 464.492188 Z M 302.539062 464.492188 " clip-rule="nonzero"/></clipPath><clipPath id="4098032b22"><path d="M 339.269531 464.457031 L 360.476562 464.457031 L 360.476562 490.304688 L 339.269531 490.304688 Z M 339.269531 464.457031 " clip-rule="nonzero"/></clipPath><clipPath id="e0ba877f1f"><path d="M 360.390625 490.207031 L 356.179688 490.207031 L 343.492188 471.003906 L 343.492188 490.207031 L 339.269531 490.207031 L 339.269531 464.457031 L 343.492188 464.457031 L 356.179688 483.625 L 356.179688 464.457031 L 360.398438 464.457031 Z M 360.390625 490.207031 " clip-rule="nonzero"/></clipPath><clipPath id="fa6387b1c0"><path d="M 381.332031 464.492188 L 403.382812 464.492188 L 403.382812 490.304688 L 381.332031 490.304688 Z M 381.332031 464.492188 " clip-rule="nonzero"/></clipPath><clipPath id="f26198e9ef"><path d="M 396.652344 484.324219 C 398.257812 482.691406 399.058594 480.398438 399.058594 477.441406 C 399.058594 474.460938 398.257812 472.132812 396.652344 470.449219 C 395.050781 468.765625 392.738281 467.9375 389.730469 467.9375 L 385.554688 467.9375 L 385.554688 486.765625 L 389.730469 486.765625 C 392.738281 486.765625 395.050781 485.953125 396.644531 484.324219 M 396.921875 466.0625 C 398.980469 467.109375 400.570312 468.617188 401.695312 470.582031 C 402.820312 472.542969 403.375 474.828125 403.375 477.441406 C 403.375 480.058594 402.820312 482.328125 401.695312 484.253906 C 400.570312 486.179688 398.980469 487.65625 396.921875 488.675781 C 394.867188 489.695312 392.46875 490.210938 389.730469 490.210938 L 381.332031 490.210938 L 381.332031 464.492188 L 389.730469 464.492188 C 392.46875 464.492188 394.867188 465.015625 396.921875 466.0625 " clip-rule="nonzero"/></clipPath><clipPath id="0dc32383ee"><path d="M 421.433594 464.457031 L 444.832031 464.457031 L 444.832031 490.304688 L 421.433594 490.304688 Z M 421.433594 464.457031 " clip-rule="nonzero"/></clipPath><clipPath id="e435286028"><path d="M 437.269531 481.511719 L 433.085938 469.558594 L 428.875 481.511719 Z M 438.457031 484.949219 L 427.6875 484.949219 L 425.839844 490.207031 L 421.433594 490.207031 L 430.644531 464.457031 L 435.527344 464.457031 L 444.742188 490.207031 L 440.304688 490.207031 Z M 438.457031 484.949219 " clip-rule="nonzero"/></clipPath><clipPath id="02fdcf09d0"><path d="M 462.792969 464.492188 L 480.738281 464.492188 L 480.738281 467.9375 L 462.792969 467.9375 Z M 469.675781 467.9375 L 473.894531 467.9375 L 473.894531 490.199219 L 469.675781 490.199219 Z M 469.675781 467.9375 " clip-rule="nonzero"/></clipPath><clipPath id="cd25988ef7"><path d="M 500.382812 464.492188 L 504.601562 464.492188 L 504.601562 490.207031 L 500.382812 490.207031 Z M 500.382812 464.492188 " clip-rule="nonzero"/></clipPath><clipPath id="08e36c3831"><path d="M 524.132812 464.160156 L 550.398438 464.160156 L 550.398438 490.566406 L 524.132812 490.566406 Z M 524.132812 464.160156 " clip-rule="nonzero"/></clipPath><clipPath id="ae17e751d1"><path d="M 541.816406 485.636719 C 543.152344 484.863281 544.1875 483.753906 544.949219 482.308594 C 545.707031 480.859375 546.074219 479.195312 546.074219 477.292969 C 546.074219 475.390625 545.699219 473.726562 544.949219 472.296875 C 544.199219 470.867188 543.152344 469.765625 541.816406 469 C 540.484375 468.234375 538.964844 467.859375 537.265625 467.859375 C 535.566406 467.859375 534.046875 468.242188 532.714844 469 C 531.378906 469.757812 530.339844 470.867188 529.589844 472.296875 C 528.84375 473.726562 528.46875 475.390625 528.46875 477.292969 C 528.46875 479.195312 528.84375 480.859375 529.589844 482.308594 C 530.339844 483.753906 531.386719 484.863281 532.714844 485.636719 C 534.039062 486.414062 535.566406 486.808594 537.265625 486.808594 C 538.964844 486.808594 540.484375 486.414062 541.816406 485.636719 M 530.664062 488.777344 C 528.660156 487.652344 527.0625 486.089844 525.894531 484.078125 C 524.726562 482.0625 524.132812 479.8125 524.132812 477.292969 C 524.132812 474.773438 524.71875 472.523438 525.886719 470.527344 C 527.054688 468.527344 528.648438 466.96875 530.664062 465.84375 C 532.679688 464.71875 534.875 464.160156 537.265625 464.160156 C 539.679688 464.160156 541.894531 464.71875 543.902344 465.84375 C 545.90625 466.96875 547.503906 468.527344 548.664062 470.527344 C 549.824219 472.523438 550.398438 474.78125 550.398438 477.292969 C 550.398438 479.804688 549.8125 482.070312 548.664062 484.085938 C 547.511719 486.101562 545.914062 487.660156 543.910156 488.785156 C 541.90625 489.910156 539.691406 490.46875 537.273438 490.46875 C 534.886719 490.46875 532.679688 489.910156 530.671875 488.785156 " clip-rule="nonzero"/></clipPath><clipPath id="a764c6fdd2"><path d="M 218.847656 267.929688 L 592 267.929688 L 592 437.355469 L 218.847656 437.355469 Z M 218.847656 267.929688 " clip-rule="nonzero"/></clipPath><clipPath id="610579ca71"><path d="M 550.457031 267.929688 L 550.457031 372.925781 L 481.433594 267.929688 L 440.171875 267.929688 L 440.171875 437.351562 L 481.433594 437.351562 L 481.433594 332.851562 L 550.464844 437.351562 L 591.734375 437.351562 L 591.734375 267.929688 Z M 418.921875 322.472656 C 418.921875 291.34375 398.167969 267.929688 356.648438 267.929688 L 289.800781 267.929688 L 289.800781 437.351562 L 331.074219 437.351562 L 331.074219 376.539062 L 356.660156 376.539062 C 399.859375 376.539062 418.929688 350.472656 418.929688 322.472656 M 331.066406 343.714844 L 331.066406 301.230469 L 353.511719 301.230469 C 369.921875 301.230469 376.925781 309.4375 376.925781 322.472656 C 376.925781 335.507812 369.929688 343.714844 353.519531 343.714844 Z M 218.847656 437.351562 L 260.117188 437.351562 L 260.117188 267.929688 L 218.847656 267.929688 Z M 218.847656 437.351562 " clip-rule="nonzero"/></clipPath><clipPath id="852bf2cab5"><path d="M 569.933594 464.457031 L 591.140625 464.457031 L 591.140625 490.304688 L 569.933594 490.304688 Z M 569.933594 464.457031 " clip-rule="nonzero"/></clipPath><clipPath id="d2e41c7208"><path d="M 591.054688 490.207031 L 586.839844 490.207031 L 574.152344 471.003906 L 574.152344 490.207031 L 569.933594 490.207031 L 569.933594 464.457031 L 574.152344 464.457031 L 586.839844 483.621094 L 586.839844 464.457031 L 591.0625 464.457031 Z M 591.054688 490.207031 " clip-rule="nonzero"/></clipPath><clipPath id="bf4df5930e"><path d="M 141 520.121094 L 158.542969 520.121094 L 158.542969 537.761719 L 141 537.761719 Z M 141 520.121094 " clip-rule="nonzero"/></clipPath><clipPath id="4480417682"><path d="M 154.558594 525.328125 C 154.113281 524.472656 153.503906 523.828125 152.710938 523.394531 C 151.914062 522.957031 151.007812 522.738281 149.972656 522.738281 C 148.835938 522.738281 147.824219 522.992188 146.9375 523.507812 C 146.046875 524.019531 145.347656 524.734375 144.851562 525.675781 C 144.355469 526.621094 144.101562 527.699219 144.101562 528.929688 C 144.101562 530.160156 144.355469 531.25 144.851562 532.199219 C 145.347656 533.152344 146.046875 533.875 146.9375 534.378906 C 147.824219 534.886719 148.835938 535.148438 149.972656 535.148438 C 151.496094 535.148438 152.742188 534.71875 153.695312 533.867188 C 154.644531 533.011719 155.230469 531.851562 155.449219 530.386719 L 149.011719 530.386719 L 149.011719 528.144531 L 158.457031 528.144531 L 158.457031 530.34375 C 158.273438 531.675781 157.800781 532.898438 157.035156 534.015625 C 156.265625 535.128906 155.273438 536.019531 154.050781 536.691406 C 152.832031 537.363281 151.460938 537.695312 149.972656 537.695312 C 148.359375 537.695312 146.882812 537.320312 145.558594 536.570312 C 144.234375 535.820312 143.167969 534.78125 142.394531 533.445312 C 141.617188 532.113281 141.214844 530.613281 141.214844 528.929688 C 141.214844 527.246094 141.609375 525.746094 142.382812 524.414062 C 143.160156 523.078125 144.234375 522.050781 145.566406 521.300781 C 146.902344 520.550781 148.375 520.175781 149.972656 520.175781 C 151.792969 520.175781 153.425781 520.621094 154.84375 521.519531 C 156.265625 522.417969 157.296875 523.679688 157.941406 525.328125 Z M 154.558594 525.328125 " clip-rule="nonzero"/></clipPath><clipPath id="404b713f6f"><path d="M 161.707031 520.394531 L 164.523438 520.394531 L 164.523438 535.269531 L 161.707031 535.269531 Z M 161.707031 535.269531 L 170.324219 535.269531 L 170.324219 537.535156 L 161.707031 537.535156 Z M 161.707031 535.269531 " clip-rule="nonzero"/></clipPath><clipPath id="e8fc138049"><path d="M 172.195312 520.121094 L 189.867188 520.121094 L 189.867188 537.761719 L 172.195312 537.761719 Z M 172.195312 520.121094 " clip-rule="nonzero"/></clipPath><clipPath id="755732258b"><path d="M 184.003906 534.492188 C 184.894531 533.96875 185.59375 533.238281 186.089844 532.269531 C 186.585938 531.300781 186.839844 530.195312 186.839844 528.929688 C 186.839844 527.664062 186.585938 526.558594 186.089844 525.597656 C 185.59375 524.640625 184.894531 523.914062 184.003906 523.402344 C 183.117188 522.886719 182.105469 522.632812 180.972656 522.632812 C 179.835938 522.632812 178.824219 522.886719 177.9375 523.402344 C 177.046875 523.914062 176.347656 524.640625 175.851562 525.597656 C 175.355469 526.558594 175.101562 527.664062 175.101562 528.929688 C 175.101562 530.195312 175.355469 531.3125 175.851562 532.269531 C 176.347656 533.230469 177.046875 533.96875 177.9375 534.492188 C 178.824219 535.015625 179.835938 535.269531 180.972656 535.269531 C 182.105469 535.269531 183.117188 535.007812 184.003906 534.492188 M 176.566406 536.585938 C 175.226562 535.835938 174.167969 534.789062 173.382812 533.457031 C 172.601562 532.121094 172.214844 530.613281 172.214844 528.929688 C 172.214844 527.246094 172.609375 525.746094 173.382812 524.414062 C 174.160156 523.078125 175.226562 522.042969 176.566406 521.292969 C 177.910156 520.542969 179.375 520.175781 180.972656 520.175781 C 182.585938 520.175781 184.058594 520.550781 185.402344 521.300781 C 186.742188 522.050781 187.800781 523.085938 188.566406 524.421875 C 189.332031 525.753906 189.726562 527.253906 189.726562 528.9375 C 189.726562 530.621094 189.34375 532.121094 188.566406 533.464844 C 187.789062 534.808594 186.734375 535.855469 185.402344 536.59375 C 184.066406 537.335938 182.585938 537.71875 180.972656 537.71875 C 179.375 537.71875 177.910156 537.34375 176.566406 536.59375 " clip-rule="nonzero"/></clipPath><clipPath id="3926238cb2"><path d="M 192.679688 520.328125 L 205.53125 520.328125 L 205.53125 537.558594 L 192.679688 537.558594 Z M 192.679688 520.328125 " clip-rule="nonzero"/></clipPath><clipPath id="38a4c1d1be"><path d="M 201.839844 534.554688 C 202.378906 534.09375 202.648438 533.457031 202.648438 532.628906 C 202.648438 531.789062 202.363281 531.128906 201.785156 530.628906 C 201.210938 530.132812 200.441406 529.890625 199.492188 529.890625 L 195.796875 529.890625 L 195.796875 535.242188 L 199.589844 535.242188 C 200.539062 535.242188 201.289062 535.015625 201.828125 534.554688 M 195.785156 527.605469 L 199.265625 527.605469 C 200.191406 527.605469 200.90625 527.394531 201.429688 526.976562 C 201.953125 526.558594 202.203125 525.957031 202.203125 525.164062 C 202.203125 524.386719 201.941406 523.785156 201.429688 523.347656 C 200.914062 522.914062 200.191406 522.695312 199.265625 522.695312 L 195.796875 522.695312 Z M 204.488281 530.195312 C 205.136719 530.996094 205.449219 531.914062 205.449219 532.933594 C 205.449219 533.804688 205.222656 534.589844 204.769531 535.285156 C 204.316406 535.984375 203.660156 536.535156 202.804688 536.933594 C 201.953125 537.335938 200.957031 537.535156 199.824219 537.535156 L 192.988281 537.535156 L 192.988281 520.394531 L 199.527344 520.394531 C 200.695312 520.394531 201.699219 520.59375 202.535156 520.984375 C 203.375 521.378906 204 521.910156 204.429688 522.582031 C 204.855469 523.253906 205.074219 523.996094 205.074219 524.8125 C 205.074219 525.800781 204.8125 526.621094 204.289062 527.28125 C 203.765625 527.945312 203.058594 528.425781 202.171875 528.738281 C 203.09375 528.902344 203.871094 529.390625 204.515625 530.195312 " clip-rule="nonzero"/></clipPath><clipPath id="0d3eeb9109"><path d="M 208 520.328125 L 223.601562 520.328125 L 223.601562 537.558594 L 208 537.558594 Z M 208 520.328125 " clip-rule="nonzero"/></clipPath><clipPath id="d5b6ef914d"><path d="M 218.5625 531.746094 L 215.773438 523.777344 L 212.964844 531.738281 Z M 219.355469 534.039062 L 212.171875 534.039062 L 210.941406 537.546875 L 208.003906 537.546875 L 214.144531 520.375 L 217.394531 520.375 L 223.535156 537.546875 L 220.585938 537.546875 Z M 219.355469 534.039062 " clip-rule="nonzero"/></clipPath><clipPath id="7a0744bc69"><path d="M 226.414062 520.328125 L 235.648438 520.328125 L 235.648438 537.558594 L 226.414062 537.558594 Z M 226.414062 520.328125 " clip-rule="nonzero"/></clipPath><clipPath id="b065ffd62f"><path d="M 229.507812 535.269531 L 235.304688 535.269531 L 235.304688 537.535156 L 226.699219 537.535156 L 226.699219 520.394531 L 229.515625 520.394531 Z M 229.507812 535.269531 " clip-rule="nonzero"/></clipPath><clipPath id="7eeb4da320"><path d="M 244 520.125 L 261 520.125 L 261 537.761719 L 244 537.761719 Z M 244 520.125 " clip-rule="nonzero"/></clipPath><clipPath id="75776cc5a1"><path d="M 245.277344 524.421875 C 246.054688 523.089844 247.117188 522.050781 248.460938 521.300781 C 249.804688 520.550781 251.269531 520.175781 252.863281 520.175781 C 254.6875 520.175781 256.320312 520.621094 257.738281 521.519531 C 259.160156 522.417969 260.191406 523.679688 260.835938 525.328125 L 257.453125 525.328125 C 257.007812 524.421875 256.398438 523.75 255.601562 523.304688 C 254.808594 522.863281 253.902344 522.644531 252.863281 522.644531 C 251.730469 522.644531 250.71875 522.894531 249.832031 523.410156 C 248.941406 523.925781 248.253906 524.648438 247.746094 525.609375 C 247.242188 526.566406 246.996094 527.675781 246.996094 528.9375 C 246.996094 530.203125 247.25 531.3125 247.746094 532.269531 C 248.242188 533.230469 248.941406 533.960938 249.832031 534.476562 C 250.71875 534.992188 251.730469 535.253906 252.863281 535.253906 C 253.902344 535.253906 254.820312 535.035156 255.601562 534.589844 C 256.386719 534.144531 257.007812 533.472656 257.453125 532.566406 L 260.835938 532.566406 C 260.199219 534.214844 259.160156 535.480469 257.738281 536.367188 C 256.320312 537.257812 254.695312 537.703125 252.863281 537.703125 C 251.253906 537.703125 249.777344 537.328125 248.453125 536.578125 C 247.128906 535.828125 246.0625 534.789062 245.289062 533.457031 C 244.511719 532.121094 244.109375 530.613281 244.109375 528.929688 C 244.109375 527.246094 244.503906 525.746094 245.277344 524.414062 " clip-rule="nonzero"/></clipPath><clipPath id="f23cbbeb2b"><path d="M 263.019531 520.125 L 281.632812 520.125 L 281.632812 537.761719 L 263.019531 537.761719 Z M 263.019531 520.125 " clip-rule="nonzero"/></clipPath><clipPath id="df61099c78"><path d="M 275.460938 534.492188 C 276.347656 533.972656 277.046875 533.238281 277.542969 532.269531 C 278.039062 531.300781 278.292969 530.195312 278.292969 528.929688 C 278.292969 527.667969 278.039062 526.558594 277.542969 525.597656 C 277.046875 524.640625 276.347656 523.917969 275.460938 523.402344 C 274.570312 522.886719 273.558594 522.632812 272.425781 522.632812 C 271.289062 522.632812 270.28125 522.886719 269.390625 523.402344 C 268.5 523.917969 267.804688 524.640625 267.304688 525.597656 C 266.808594 526.558594 266.554688 527.667969 266.554688 528.929688 C 266.554688 530.195312 266.808594 531.3125 267.304688 532.269531 C 267.804688 533.230469 268.5 533.972656 269.390625 534.492188 C 270.28125 535.015625 271.289062 535.269531 272.425781 535.269531 C 273.558594 535.269531 274.570312 535.007812 275.460938 534.492188 M 268.019531 536.585938 C 266.679688 535.835938 265.621094 534.789062 264.839844 533.457031 C 264.054688 532.121094 263.667969 530.613281 263.667969 528.929688 C 263.667969 527.246094 264.0625 525.746094 264.839844 524.414062 C 265.613281 523.078125 266.679688 522.042969 268.019531 521.292969 C 269.363281 520.542969 270.828125 520.175781 272.425781 520.175781 C 274.039062 520.175781 275.511719 520.550781 276.855469 521.300781 C 278.195312 522.050781 279.253906 523.089844 280.019531 524.421875 C 280.785156 525.757812 281.179688 527.257812 281.179688 528.9375 C 281.179688 530.621094 280.796875 532.121094 280.019531 533.464844 C 279.242188 534.808594 278.1875 535.855469 276.855469 536.59375 C 275.519531 537.335938 274.039062 537.71875 272.425781 537.71875 C 270.828125 537.71875 269.363281 537.34375 268.019531 536.59375 " clip-rule="nonzero"/></clipPath><clipPath id="8562cc7ca3"><path d="M 284.292969 520.328125 L 298.917969 520.328125 L 298.917969 537.558594 L 284.292969 537.558594 Z M 284.292969 520.328125 " clip-rule="nonzero"/></clipPath><clipPath id="e39c85c129"><path d="M 298.515625 537.539062 L 295.707031 537.539062 L 287.25 524.734375 L 287.25 537.539062 L 284.433594 537.539062 L 284.433594 520.375 L 287.25 520.375 L 295.707031 533.152344 L 295.707031 520.375 L 298.515625 520.375 Z M 298.515625 537.539062 " clip-rule="nonzero"/></clipPath><clipPath id="4a6bab0724"><path d="M 302.710938 520.394531 L 312.796875 520.394531 L 312.796875 522.695312 L 302.710938 522.695312 Z M 302.710938 522.695312 L 305.515625 522.695312 L 305.515625 527.753906 L 302.710938 527.753906 Z M 302.710938 527.753906 L 311.183594 527.753906 L 311.183594 530.046875 L 302.710938 530.046875 Z M 302.710938 530.046875 L 305.515625 530.046875 L 305.515625 537.546875 L 302.710938 537.546875 Z M 302.710938 530.046875 " clip-rule="nonzero"/></clipPath><clipPath id="26cdc426a4"><path d="M 315.902344 520.394531 L 318.71875 520.394531 L 318.71875 535.269531 L 315.902344 535.269531 Z M 315.902344 535.269531 L 324.511719 535.269531 L 324.511719 537.539062 L 315.902344 537.539062 Z M 315.902344 535.269531 " clip-rule="nonzero"/></clipPath><clipPath id="e46aa6e393"><path d="M 327 520.328125 L 340.800781 520.328125 L 340.800781 537.761719 L 327 537.761719 Z M 327 520.328125 " clip-rule="nonzero"/></clipPath><clipPath id="462c090455"><path d="M 330.132812 520.394531 L 330.132812 531.320312 C 330.132812 532.621094 330.472656 533.597656 331.15625 534.257812 C 331.835938 534.921875 332.785156 535.242188 334.007812 535.242188 C 335.234375 535.242188 336.195312 534.914062 336.875 534.257812 C 337.554688 533.605469 337.894531 532.621094 337.894531 531.320312 L 337.894531 520.394531 L 340.703125 520.394531 L 340.703125 531.277344 C 340.703125 532.671875 340.398438 533.859375 339.789062 534.824219 C 339.175781 535.792969 338.367188 536.515625 337.347656 536.996094 C 336.324219 537.476562 335.199219 537.710938 333.960938 537.710938 C 332.722656 537.710938 331.609375 537.476562 330.597656 536.996094 C 329.585938 536.515625 328.78125 535.792969 328.191406 534.824219 C 327.597656 533.859375 327.300781 532.671875 327.300781 531.277344 L 327.300781 520.394531 Z M 330.132812 520.394531 " clip-rule="nonzero"/></clipPath><clipPath id="efebe6a5bd"><path d="M 344.855469 520.375 L 354.332031 520.375 L 354.332031 522.667969 L 344.855469 522.667969 Z M 344.855469 522.667969 L 347.671875 522.667969 L 347.671875 527.699219 L 344.855469 527.699219 Z M 344.855469 527.699219 L 353.589844 527.699219 L 353.589844 529.996094 L 344.855469 529.996094 Z M 344.855469 529.996094 L 347.671875 529.996094 L 347.671875 535.242188 L 344.855469 535.242188 Z M 344.855469 535.242188 L 354.332031 535.242188 L 354.332031 537.539062 L 344.855469 537.539062 Z M 344.855469 535.242188 " clip-rule="nonzero"/></clipPath><clipPath id="60ed63e759"><path d="M 358.085938 520.328125 L 372.710938 520.328125 L 372.710938 537.558594 L 358.085938 537.558594 Z M 358.085938 520.328125 " clip-rule="nonzero"/></clipPath><clipPath id="06d39e656e"><path d="M 372.355469 537.539062 L 369.550781 537.539062 L 361.089844 524.734375 L 361.089844 537.539062 L 358.273438 537.539062 L 358.273438 520.375 L 361.089844 520.375 L 369.550781 533.152344 L 369.550781 520.375 L 372.355469 520.375 Z M 372.355469 537.539062 " clip-rule="nonzero"/></clipPath><clipPath id="37af285805"><path d="M 375.371094 520.125 L 392.65625 520.125 L 392.65625 537.761719 L 375.371094 537.761719 Z M 375.371094 520.125 " clip-rule="nonzero"/></clipPath><clipPath id="8275f2bfae"><path d="M 376.789062 524.421875 C 377.570312 523.089844 378.628906 522.050781 379.96875 521.300781 C 381.3125 520.550781 382.777344 520.175781 384.363281 520.175781 C 386.1875 520.175781 387.816406 520.621094 389.238281 521.519531 C 390.660156 522.417969 391.691406 523.679688 392.335938 525.328125 L 388.953125 525.328125 C 388.507812 524.421875 387.898438 523.75 387.101562 523.304688 C 386.308594 522.863281 385.402344 522.644531 384.363281 522.644531 C 383.230469 522.644531 382.21875 522.894531 381.332031 523.410156 C 380.441406 523.925781 379.753906 524.648438 379.246094 525.609375 C 378.742188 526.566406 378.496094 527.675781 378.496094 528.9375 C 378.496094 530.203125 378.75 531.3125 379.246094 532.269531 C 379.742188 533.230469 380.441406 533.960938 381.332031 534.476562 C 382.21875 534.992188 383.230469 535.253906 384.363281 535.253906 C 385.402344 535.253906 386.316406 535.035156 387.101562 534.589844 C 387.886719 534.144531 388.507812 533.472656 388.953125 532.566406 L 392.335938 532.566406 C 391.691406 534.214844 390.660156 535.480469 389.238281 536.367188 C 387.816406 537.257812 386.195312 537.703125 384.363281 537.703125 C 382.75 537.703125 381.277344 537.328125 379.953125 536.578125 C 378.628906 535.828125 377.5625 534.789062 376.789062 533.457031 C 376.011719 532.121094 375.617188 530.621094 375.617188 528.9375 C 375.617188 527.257812 376.011719 525.757812 376.789062 524.421875 " clip-rule="nonzero"/></clipPath><clipPath id="2b6d4356d9"><path d="M 396.109375 520.375 L 405.582031 520.375 L 405.582031 522.667969 L 396.109375 522.667969 Z M 396.109375 522.667969 L 398.917969 522.667969 L 398.917969 527.699219 L 396.109375 527.699219 Z M 396.109375 527.699219 L 404.839844 527.699219 L 404.839844 529.996094 L 396.109375 529.996094 Z M 396.109375 529.996094 L 398.917969 529.996094 L 398.917969 535.242188 L 396.109375 535.242188 Z M 396.109375 535.242188 L 405.582031 535.242188 L 405.582031 537.539062 L 396.109375 537.539062 Z M 396.109375 535.242188 " clip-rule="nonzero"/></clipPath><clipPath id="b61d1dc67f"><path d="M 415.460938 520.125 L 433.085938 520.125 L 433.085938 537.761719 L 415.460938 537.761719 Z M 415.460938 520.125 " clip-rule="nonzero"/></clipPath><clipPath id="edf8ab9e3b"><path d="M 427.285156 534.492188 C 428.171875 533.96875 428.871094 533.238281 429.367188 532.269531 C 429.863281 531.300781 430.117188 530.195312 430.117188 528.929688 C 430.117188 527.667969 429.863281 526.558594 429.367188 525.597656 C 428.871094 524.640625 428.171875 523.917969 427.285156 523.402344 C 426.394531 522.886719 425.382812 522.632812 424.25 522.632812 C 423.117188 522.632812 422.105469 522.886719 421.214844 523.402344 C 420.324219 523.917969 419.628906 524.640625 419.128906 525.597656 C 418.632812 526.558594 418.378906 527.667969 418.378906 528.929688 C 418.378906 530.195312 418.632812 531.3125 419.128906 532.269531 C 419.628906 533.230469 420.324219 533.96875 421.214844 534.492188 C 422.105469 535.015625 423.117188 535.269531 424.25 535.269531 C 425.382812 535.269531 426.394531 535.007812 427.285156 534.492188 M 419.84375 536.585938 C 418.503906 535.835938 417.449219 534.789062 416.664062 533.457031 C 415.878906 532.121094 415.496094 530.605469 415.496094 528.929688 C 415.496094 527.257812 415.886719 525.746094 416.664062 524.414062 C 417.4375 523.078125 418.503906 522.050781 419.84375 521.300781 C 421.1875 520.550781 422.652344 520.175781 424.25 520.175781 C 425.863281 520.175781 427.335938 520.550781 428.679688 521.300781 C 430.023438 522.050781 431.078125 523.089844 431.84375 524.421875 C 432.613281 525.757812 433.003906 527.257812 433.003906 528.9375 C 433.003906 530.621094 432.621094 532.121094 431.84375 533.464844 C 431.070312 534.808594 430.011719 535.855469 428.679688 536.59375 C 427.34375 537.335938 425.863281 537.71875 424.25 537.71875 C 422.652344 537.71875 421.1875 537.34375 419.84375 536.59375 " clip-rule="nonzero"/></clipPath><clipPath id="1c9b1af3a7"><path d="M 436.257812 520.394531 L 446.347656 520.394531 L 446.347656 522.695312 L 436.257812 522.695312 Z M 436.257812 522.695312 L 439.074219 522.695312 L 439.074219 527.753906 L 436.257812 527.753906 Z M 436.257812 527.753906 L 444.75 527.753906 L 444.75 530.046875 L 436.257812 530.046875 Z M 436.257812 530.046875 L 439.074219 530.046875 L 439.074219 537.546875 L 436.257812 537.546875 Z M 436.257812 530.046875 " clip-rule="nonzero"/></clipPath><clipPath id="c21bc97d90"><path d="M 455.886719 520.121094 L 467.945312 520.121094 L 467.945312 537.761719 L 455.886719 537.761719 Z M 455.886719 520.121094 " clip-rule="nonzero"/></clipPath><clipPath id="22237339a5"><path d="M 458.898438 537.109375 C 457.972656 536.707031 457.25 536.132812 456.726562 535.398438 C 456.203125 534.667969 455.941406 533.789062 455.941406 532.800781 L 458.949219 532.800781 C 459.019531 533.542969 459.308594 534.152344 459.824219 534.625 C 460.335938 535.09375 461.070312 535.339844 462.003906 535.339844 C 462.972656 535.339844 463.730469 535.105469 464.269531 534.640625 C 464.8125 534.179688 465.082031 533.570312 465.082031 532.828125 C 465.082031 532.253906 464.914062 531.78125 464.574219 531.425781 C 464.234375 531.066406 463.816406 530.777344 463.320312 530.585938 C 462.824219 530.394531 462.125 530.175781 461.234375 529.949219 C 460.121094 529.652344 459.210938 529.355469 458.507812 529.050781 C 457.800781 528.746094 457.214844 528.277344 456.71875 527.628906 C 456.222656 526.984375 455.976562 526.128906 455.976562 525.066406 C 455.976562 524.082031 456.222656 523.21875 456.71875 522.476562 C 457.214844 521.734375 457.90625 521.167969 458.792969 520.777344 C 459.683594 520.382812 460.722656 520.175781 461.890625 520.175781 C 463.546875 520.175781 464.90625 520.59375 465.96875 521.421875 C 467.035156 522.25 467.617188 523.394531 467.730469 524.839844 L 464.628906 524.839844 C 464.574219 524.210938 464.277344 523.679688 463.738281 523.234375 C 463.199219 522.789062 462.480469 522.574219 461.59375 522.574219 C 460.789062 522.574219 460.128906 522.78125 459.621094 523.191406 C 459.117188 523.601562 458.855469 524.195312 458.855469 524.972656 C 458.855469 525.496094 459.011719 525.929688 459.335938 526.261719 C 459.65625 526.59375 460.058594 526.871094 460.554688 527.0625 C 461.050781 527.253906 461.722656 527.472656 462.578125 527.710938 C 463.710938 528.023438 464.636719 528.335938 465.351562 528.652344 C 466.066406 528.964844 466.675781 529.445312 467.175781 530.089844 C 467.671875 530.734375 467.921875 531.605469 467.921875 532.695312 C 467.921875 533.570312 467.6875 534.390625 467.21875 535.164062 C 466.746094 535.941406 466.066406 536.558594 465.167969 537.03125 C 464.269531 537.5 463.214844 537.730469 462.003906 537.730469 C 460.851562 537.730469 459.8125 537.527344 458.898438 537.125 " clip-rule="nonzero"/></clipPath><clipPath id="ce9ce1028a"><path d="M 470.527344 520.121094 L 487.753906 520.121094 L 487.753906 537.761719 L 470.527344 537.761719 Z M 470.527344 520.121094 " clip-rule="nonzero"/></clipPath><clipPath id="84bbeac547"><path d="M 471.988281 524.421875 C 472.761719 523.085938 473.828125 522.050781 475.171875 521.300781 C 476.511719 520.550781 477.976562 520.175781 479.566406 520.175781 C 481.386719 520.175781 483.019531 520.621094 484.441406 521.519531 C 485.859375 522.417969 486.898438 523.679688 487.535156 525.328125 L 484.152344 525.328125 C 483.707031 524.421875 483.097656 523.75 482.304688 523.304688 C 481.511719 522.859375 480.601562 522.644531 479.566406 522.644531 C 478.429688 522.644531 477.421875 522.894531 476.53125 523.410156 C 475.640625 523.925781 474.945312 524.648438 474.445312 525.609375 C 473.949219 526.566406 473.695312 527.675781 473.695312 528.9375 C 473.695312 530.203125 473.949219 531.3125 474.445312 532.269531 C 474.945312 533.230469 475.640625 533.960938 476.53125 534.476562 C 477.421875 534.992188 478.429688 535.253906 479.566406 535.253906 C 480.601562 535.253906 481.519531 535.035156 482.304688 534.589844 C 483.089844 534.144531 483.707031 533.472656 484.152344 532.566406 L 487.535156 532.566406 C 486.898438 534.214844 485.859375 535.480469 484.441406 536.367188 C 483.019531 537.257812 481.394531 537.703125 479.566406 537.703125 C 477.953125 537.703125 476.488281 537.328125 475.152344 536.578125 C 473.820312 535.828125 472.761719 534.789062 471.988281 533.457031 C 471.210938 532.121094 470.820312 530.621094 470.820312 528.9375 C 470.820312 527.253906 471.210938 525.753906 471.988281 524.421875 " clip-rule="nonzero"/></clipPath><clipPath id="53c4fdd83a"><path d="M 502.183594 520.394531 L 504.992188 520.394531 L 504.992188 527.742188 L 502.183594 527.742188 Z M 491.3125 520.394531 L 494.117188 520.394531 L 494.117188 527.742188 L 491.3125 527.742188 Z M 491.3125 527.742188 L 504.992188 527.742188 L 504.992188 530.039062 L 491.3125 530.039062 Z M 491.3125 530.039062 L 494.117188 530.039062 L 494.117188 537.535156 L 491.3125 537.535156 Z M 502.183594 530.039062 L 504.992188 530.039062 L 504.992188 537.535156 L 502.183594 537.535156 Z M 502.183594 530.039062 " clip-rule="nonzero"/></clipPath><clipPath id="b841c2d1c4"><path d="M 508 520.121094 L 526 520.121094 L 526 537.761719 L 508 537.761719 Z M 508 520.121094 " clip-rule="nonzero"/></clipPath><clipPath id="34c75a760c"><path d="M 520.042969 534.492188 C 520.933594 533.96875 521.632812 533.238281 522.128906 532.269531 C 522.625 531.300781 522.878906 530.195312 522.878906 528.929688 C 522.878906 527.664062 522.625 526.558594 522.128906 525.597656 C 521.632812 524.640625 520.933594 523.914062 520.042969 523.402344 C 519.15625 522.886719 518.144531 522.632812 517.007812 522.632812 C 515.875 522.632812 514.863281 522.886719 513.976562 523.402344 C 513.085938 523.914062 512.386719 524.640625 511.890625 525.597656 C 511.394531 526.558594 511.140625 527.664062 511.140625 528.929688 C 511.140625 530.195312 511.394531 531.3125 511.890625 532.269531 C 512.386719 533.230469 513.085938 533.96875 513.976562 534.492188 C 514.863281 535.015625 515.875 535.269531 517.007812 535.269531 C 518.144531 535.269531 519.15625 535.007812 520.042969 534.492188 M 512.605469 536.585938 C 511.261719 535.835938 510.207031 534.789062 509.421875 533.457031 C 508.636719 532.121094 508.253906 530.613281 508.253906 528.929688 C 508.253906 527.246094 508.648438 525.746094 509.421875 524.414062 C 510.199219 523.078125 511.261719 522.042969 512.605469 521.292969 C 513.949219 520.542969 515.414062 520.175781 517.007812 520.175781 C 518.621094 520.175781 520.097656 520.550781 521.4375 521.300781 C 522.78125 522.050781 523.835938 523.085938 524.605469 524.421875 C 525.371094 525.753906 525.765625 527.253906 525.765625 528.9375 C 525.765625 530.621094 525.378906 532.121094 524.605469 533.464844 C 523.828125 534.808594 522.773438 535.855469 521.4375 536.59375 C 520.105469 537.335938 518.621094 537.71875 517.007812 537.71875 C 515.414062 537.71875 513.949219 537.34375 512.605469 536.59375 " clip-rule="nonzero"/></clipPath><clipPath id="68b38e363c"><path d="M 528 520.121094 L 545.882812 520.121094 L 545.882812 537.761719 L 528 537.761719 Z M 528 520.121094 " clip-rule="nonzero"/></clipPath><clipPath id="a4d6b7fef5"><path d="M 539.875 534.492188 C 540.761719 533.96875 541.460938 533.238281 541.957031 532.269531 C 542.453125 531.300781 542.707031 530.195312 542.707031 528.929688 C 542.707031 527.664062 542.453125 526.558594 541.957031 525.597656 C 541.460938 524.640625 540.761719 523.914062 539.875 523.402344 C 538.984375 522.886719 537.972656 522.632812 536.839844 522.632812 C 535.707031 522.632812 534.695312 522.886719 533.804688 523.402344 C 532.914062 523.914062 532.21875 524.640625 531.71875 525.597656 C 531.222656 526.558594 530.96875 527.664062 530.96875 528.929688 C 530.96875 530.195312 531.222656 531.3125 531.71875 532.269531 C 532.21875 533.230469 532.914062 533.96875 533.804688 534.492188 C 534.695312 535.015625 535.707031 535.269531 536.839844 535.269531 C 537.972656 535.269531 538.984375 535.007812 539.875 534.492188 M 532.433594 536.585938 C 531.09375 535.835938 530.039062 534.789062 529.253906 533.457031 C 528.46875 532.121094 528.085938 530.613281 528.085938 528.929688 C 528.085938 527.246094 528.476562 525.746094 529.253906 524.414062 C 530.027344 523.078125 531.09375 522.042969 532.433594 521.292969 C 533.777344 520.542969 535.242188 520.175781 536.839844 520.175781 C 538.453125 520.175781 539.925781 520.550781 541.269531 521.300781 C 542.613281 522.050781 543.667969 523.085938 544.433594 524.421875 C 545.203125 525.753906 545.59375 527.253906 545.59375 528.9375 C 545.59375 530.621094 545.210938 532.121094 544.433594 533.464844 C 543.660156 534.808594 542.601562 535.855469 541.269531 536.59375 C 539.933594 537.335938 538.453125 537.71875 536.839844 537.71875 C 535.242188 537.71875 533.777344 537.34375 532.433594 536.59375 " clip-rule="nonzero"/></clipPath><clipPath id="a0f31379d1"><path d="M 548.46875 520.328125 L 557.511719 520.328125 L 557.511719 537.558594 L 548.46875 537.558594 Z M 548.46875 520.328125 " clip-rule="nonzero"/></clipPath><clipPath id="5431213205"><path d="M 551.664062 535.269531 L 557.460938 535.269531 L 557.460938 537.535156 L 548.855469 537.535156 L 548.855469 520.394531 L 551.671875 520.394531 Z M 551.664062 535.269531 " clip-rule="nonzero"/></clipPath><clipPath id="a89cb7c7d0"><path d="M 567.195312 520.394531 L 570.003906 520.394531 L 570.003906 535.269531 L 567.195312 535.269531 Z M 567.195312 535.269531 L 575.804688 535.269531 L 575.804688 537.535156 L 567.195312 537.535156 Z M 567.195312 535.269531 " clip-rule="nonzero"/></clipPath><clipPath id="8e598873ea"><path d="M 578.636719 520.375 L 588.105469 520.375 L 588.105469 522.667969 L 578.636719 522.667969 Z M 578.636719 522.667969 L 581.453125 522.667969 L 581.453125 527.699219 L 578.636719 527.699219 Z M 578.636719 527.699219 L 587.375 527.699219 L 587.375 529.992188 L 578.636719 529.992188 Z M 578.636719 529.992188 L 581.453125 529.992188 L 581.453125 535.242188 L 578.636719 535.242188 Z M 578.636719 535.242188 L 588.117188 535.242188 L 588.117188 537.535156 L 578.636719 537.535156 Z M 578.636719 535.242188 " clip-rule="nonzero"/></clipPath><clipPath id="258937c896"><path d="M 591 520.328125 L 606.785156 520.328125 L 606.785156 537.558594 L 591 537.558594 Z M 591 520.328125 " clip-rule="nonzero"/></clipPath><clipPath id="927b3f4c8b"><path d="M 601.597656 531.746094 L 598.816406 523.777344 L 596 531.738281 Z M 602.390625 534.039062 L 595.214844 534.039062 L 593.984375 537.546875 L 591.046875 537.546875 L 597.183594 520.375 L 600.4375 520.375 L 606.578125 537.546875 L 603.621094 537.546875 Z M 602.390625 534.039062 " clip-rule="nonzero"/></clipPath><clipPath id="639c9e81fc"><path d="M 609.371094 520.328125 L 624.453125 520.328125 L 624.453125 537.558594 L 609.371094 537.558594 Z M 609.371094 520.328125 " clip-rule="nonzero"/></clipPath><clipPath id="defa617811"><path d="M 619.953125 533.621094 C 621.015625 532.539062 621.558594 531.003906 621.558594 529.035156 C 621.558594 527.046875 621.027344 525.496094 619.953125 524.378906 C 618.878906 523.261719 617.347656 522.703125 615.339844 522.703125 L 612.550781 522.703125 L 612.550781 535.261719 L 615.339844 535.261719 C 617.347656 535.261719 618.878906 534.71875 619.953125 533.628906 M 620.136719 521.457031 C 621.503906 522.15625 622.570312 523.15625 623.320312 524.464844 C 624.070312 525.773438 624.445312 527.300781 624.445312 529.042969 C 624.445312 530.789062 624.070312 532.296875 623.320312 533.578125 C 622.570312 534.859375 621.503906 535.84375 620.136719 536.523438 C 618.765625 537.207031 617.164062 537.546875 615.339844 537.546875 L 609.742188 537.546875 L 609.742188 520.394531 L 615.339844 520.394531 C 617.164062 520.394531 618.765625 520.742188 620.136719 521.4375 " clip-rule="nonzero"/></clipPath><clipPath id="7e730be9ff"><path d="M 627.722656 520.375 L 637.191406 520.375 L 637.191406 522.667969 L 627.722656 522.667969 Z M 627.722656 522.667969 L 630.53125 522.667969 L 630.53125 527.699219 L 627.722656 527.699219 Z M 627.722656 527.699219 L 636.453125 527.699219 L 636.453125 529.992188 L 627.722656 529.992188 Z M 627.722656 529.992188 L 630.53125 529.992188 L 630.53125 535.242188 L 627.722656 535.242188 Z M 627.722656 535.242188 L 637.191406 535.242188 L 637.191406 537.535156 L 627.722656 537.535156 Z M 627.722656 535.242188 " clip-rule="nonzero"/></clipPath><clipPath id="f7887231cd"><path d="M 641 520.328125 L 653.753906 520.328125 L 653.753906 537.558594 L 641 537.558594 Z M 641 520.328125 " clip-rule="nonzero"/></clipPath><clipPath id="bee11c4fb2"><path d="M 643.949219 528.441406 L 647.054688 528.441406 C 648.109375 528.441406 648.902344 528.179688 649.4375 527.648438 C 649.96875 527.117188 650.238281 526.417969 650.238281 525.527344 C 650.238281 524.640625 649.976562 523.949219 649.453125 523.445312 C 648.929688 522.9375 648.128906 522.695312 647.0625 522.695312 L 643.949219 522.695312 Z M 650.039062 537.535156 L 646.085938 530.683594 L 643.949219 530.683594 L 643.949219 537.535156 L 641.132812 537.535156 L 641.132812 520.394531 L 647.054688 520.394531 C 648.371094 520.394531 649.488281 520.621094 650.394531 521.082031 C 651.300781 521.542969 651.992188 522.164062 652.445312 522.929688 C 652.898438 523.699219 653.125 524.570312 653.125 525.519531 C 653.125 526.636719 652.800781 527.65625 652.148438 528.5625 C 651.492188 529.46875 650.5 530.097656 649.15625 530.421875 L 653.394531 537.527344 Z M 650.039062 537.535156 " clip-rule="nonzero"/></clipPath><clipPath id="a9b6e75ebe"><path d="M 656.769531 520.121094 L 668.835938 520.121094 L 668.835938 537.761719 L 656.769531 537.761719 Z M 656.769531 520.121094 " clip-rule="nonzero"/></clipPath><clipPath id="1597a2c2c6"><path d="M 659.761719 537.109375 C 658.84375 536.707031 658.113281 536.132812 657.589844 535.398438 C 657.066406 534.667969 656.804688 533.796875 656.804688 532.808594 L 659.8125 532.808594 C 659.882812 533.550781 660.171875 534.160156 660.683594 534.632812 C 661.199219 535.105469 661.929688 535.347656 662.863281 535.347656 C 663.832031 535.347656 664.589844 535.113281 665.132812 534.648438 C 665.671875 534.1875 665.941406 533.578125 665.941406 532.835938 C 665.941406 532.261719 665.777344 531.789062 665.4375 531.433594 C 665.097656 531.074219 664.679688 530.789062 664.179688 530.59375 C 663.683594 530.402344 662.988281 530.1875 662.097656 529.957031 C 660.980469 529.664062 660.074219 529.367188 659.375 529.0625 C 658.679688 528.753906 658.078125 528.285156 657.589844 527.640625 C 657.101562 526.992188 656.847656 526.140625 656.847656 525.074219 C 656.847656 524.089844 657.09375 523.226562 657.589844 522.484375 C 658.085938 521.746094 658.773438 521.179688 659.664062 520.785156 C 660.554688 520.394531 661.582031 520.191406 662.742188 520.191406 C 664.398438 520.191406 665.757812 520.609375 666.824219 521.4375 C 667.886719 522.269531 668.472656 523.410156 668.585938 524.859375 L 665.480469 524.859375 C 665.429688 524.230469 665.132812 523.699219 664.589844 523.253906 C 664.050781 522.808594 663.335938 522.589844 662.445312 522.589844 C 661.636719 522.589844 660.980469 522.800781 660.476562 523.210938 C 659.96875 523.621094 659.707031 524.210938 659.707031 524.988281 C 659.707031 525.511719 659.863281 525.949219 660.1875 526.277344 C 660.511719 526.609375 660.921875 526.890625 661.410156 527.082031 C 661.898438 527.273438 662.578125 527.492188 663.429688 527.726562 C 664.566406 528.039062 665.488281 528.355469 666.203125 528.667969 C 666.917969 528.980469 667.53125 529.460938 668.027344 530.105469 C 668.523438 530.753906 668.777344 531.625 668.777344 532.714844 C 668.777344 533.585938 668.542969 534.40625 668.070312 535.183594 C 667.597656 535.957031 666.917969 536.578125 666.019531 537.046875 C 665.121094 537.519531 664.066406 537.746094 662.855469 537.746094 C 661.703125 537.746094 660.667969 537.546875 659.75 537.144531 " clip-rule="nonzero"/></clipPath></defs><rect x="-81" width="972" fill="#ffffff" y="-80.999999" height="971.999992" fill-opacity="1"/><rect x="-81" width="972" fill="#191919" y="-80.999999" height="971.999992" fill-opacity="1"/><g clip-path="url(#ddd9e92cca)"><path fill="#ffffff" d="M 219.519531 464.492188 L 234.648438 464.492188 L 234.648438 490.207031 L 219.519531 490.207031 Z M 219.519531 464.492188 " fill-opacity="1" fill-rule="nonzero"/></g><g clip-path="url(#ec5feee34a)"><g clip-path="url(#1b576e5c79)"><path fill="#ffffff" d="M 252.554688 464.160156 L 278.820312 464.160156 L 278.820312 490.464844 L 252.554688 490.464844 Z M 252.554688 464.160156 " fill-opacity="1" fill-rule="nonzero"/></g></g><g clip-path="url(#fc222a2fc2)"><g clip-path="url(#d6aafe216c)"><path fill="#ffffff" d="M 298.316406 464.492188 L 318.40625 464.492188 L 318.40625 490.464844 L 298.316406 490.464844 Z M 298.316406 464.492188 " fill-opacity="1" fill-rule="nonzero"/></g></g><g clip-path="url(#4098032b22)"><g clip-path="url(#e0ba877f1f)"><path fill="#ffffff" d="M 339.269531 464.457031 L 360.394531 464.457031 L 360.394531 490.207031 L 339.269531 490.207031 Z M 339.269531 464.457031 " fill-opacity="1" fill-rule="nonzero"/></g></g><g clip-path="url(#fa6387b1c0)"><g clip-path="url(#f26198e9ef)"><path fill="#ffffff" d="M 381.332031 464.492188 L 403.382812 464.492188 L 403.382812 490.203125 L 381.332031 490.203125 Z M 381.332031 464.492188 " fill-opacity="1" fill-rule="nonzero"/></g></g><g clip-path="url(#0dc32383ee)"><g clip-path="url(#e435286028)"><path fill="#ffffff" d="M 421.433594 464.457031 L 444.742188 464.457031 L 444.742188 490.203125 L 421.433594 490.203125 Z M 421.433594 464.457031 " fill-opacity="1" fill-rule="nonzero"/></g></g><g clip-path="url(#02fdcf09d0)"><path fill="#ffffff" d="M 462.792969 464.492188 L 480.738281 464.492188 L 480.738281 490.207031 L 462.792969 490.207031 Z M 462.792969 464.492188 " fill-opacity="1" fill-rule="nonzero"/></g><g clip-path="url(#cd25988ef7)"><path fill="#ffffff" d="M 500.382812 464.492188 L 504.597656 464.492188 L 504.597656 490.203125 L 500.382812 490.203125 Z M 500.382812 464.492188 " fill-opacity="1" fill-rule="nonzero"/></g><g clip-path="url(#08e36c3831)"><g clip-path="url(#ae17e751d1)"><path fill="#ffffff" d="M 524.132812 464.160156 L 550.398438 464.160156 L 550.398438 490.464844 L 524.132812 490.464844 Z M 524.132812 464.160156 " fill-opacity="1" fill-rule="nonzero"/></g></g><g clip-path="url(#a764c6fdd2)"><g clip-path="url(#610579ca71)"><path fill="#ff7e39" d="M 218.847656 267.929688 L 591.730469 267.929688 L 591.730469 437.355469 L 218.847656 437.355469 Z M 218.847656 267.929688 " fill-opacity="1" fill-rule="nonzero"/></g></g><g clip-path="url(#852bf2cab5)"><g clip-path="url(#d2e41c7208)"><path fill="#ffffff" d="M 569.933594 464.457031 L 591.058594 464.457031 L 591.058594 490.203125 L 569.933594 490.203125 Z M 569.933594 464.457031 " fill-opacity="1" fill-rule="nonzero"/></g></g><g clip-path="url(#bf4df5930e)"><g clip-path="url(#4480417682)"><path fill="#ffffff" d="M 136.855469 515.816406 L 239.664062 515.816406 L 239.664062 542.070312 L 136.855469 542.070312 Z M 136.855469 515.816406 " fill-opacity="1" fill-rule="nonzero"/></g></g><g clip-path="url(#404b713f6f)"><path fill="#ffffff" d="M 136.855469 515.816406 L 239.664062 515.816406 L 239.664062 542.070312 L 136.855469 542.070312 Z M 136.855469 515.816406 " fill-opacity="1" fill-rule="nonzero"/></g><g clip-path="url(#e8fc138049)"><g clip-path="url(#755732258b)"><path fill="#ffffff" d="M 136.855469 515.816406 L 239.664062 515.816406 L 239.664062 542.070312 L 136.855469 542.070312 Z M 136.855469 515.816406 " fill-opacity="1" fill-rule="nonzero"/></g></g><g clip-path="url(#3926238cb2)"><g clip-path="url(#38a4c1d1be)"><path fill="#ffffff" d="M 136.855469 515.816406 L 239.664062 515.816406 L 239.664062 542.070312 L 136.855469 542.070312 Z M 136.855469 515.816406 " fill-opacity="1" fill-rule="nonzero"/></g></g><g clip-path="url(#0d3eeb9109)"><g clip-path="url(#d5b6ef914d)"><path fill="#ffffff" d="M 136.855469 515.816406 L 239.664062 515.816406 L 239.664062 542.070312 L 136.855469 542.070312 Z M 136.855469 515.816406 " fill-opacity="1" fill-rule="nonzero"/></g></g><g clip-path="url(#7a0744bc69)"><g clip-path="url(#b065ffd62f)"><path fill="#ffffff" d="M 136.855469 515.816406 L 239.664062 515.816406 L 239.664062 542.070312 L 136.855469 542.070312 Z M 136.855469 515.816406 " fill-opacity="1" fill-rule="nonzero"/></g></g><g clip-path="url(#7eeb4da320)"><g clip-path="url(#75776cc5a1)"><path fill="#ffffff" d="M 239.75 515.816406 L 409.9375 515.816406 L 409.9375 542.070312 L 239.75 542.070312 Z M 239.75 515.816406 " fill-opacity="1" fill-rule="nonzero"/></g></g><g clip-path="url(#f23cbbeb2b)"><g clip-path="url(#df61099c78)"><path fill="#ffffff" d="M 239.75 515.816406 L 409.9375 515.816406 L 409.9375 542.070312 L 239.75 542.070312 Z M 239.75 515.816406 " fill-opacity="1" fill-rule="nonzero"/></g></g><g clip-path="url(#8562cc7ca3)"><g clip-path="url(#e39c85c129)"><path fill="#ffffff" d="M 239.75 515.816406 L 409.9375 515.816406 L 409.9375 542.070312 L 239.75 542.070312 Z M 239.75 515.816406 " fill-opacity="1" fill-rule="nonzero"/></g></g><g clip-path="url(#4a6bab0724)"><path fill="#ffffff" d="M 239.75 515.816406 L 409.9375 515.816406 L 409.9375 542.070312 L 239.75 542.070312 Z M 239.75 515.816406 " fill-opacity="1" fill-rule="nonzero"/></g><g clip-path="url(#26cdc426a4)"><path fill="#ffffff" d="M 239.75 515.816406 L 409.9375 515.816406 L 409.9375 542.070312 L 239.75 542.070312 Z M 239.75 515.816406 " fill-opacity="1" fill-rule="nonzero"/></g><g clip-path="url(#e46aa6e393)"><g clip-path="url(#462c090455)"><path fill="#ffffff" d="M 239.75 515.816406 L 409.9375 515.816406 L 409.9375 542.070312 L 239.75 542.070312 Z M 239.75 515.816406 " fill-opacity="1" fill-rule="nonzero"/></g></g><g clip-path="url(#efebe6a5bd)"><path fill="#ffffff" d="M 239.75 515.816406 L 409.9375 515.816406 L 409.9375 542.070312 L 239.75 542.070312 Z M 239.75 515.816406 " fill-opacity="1" fill-rule="nonzero"/></g><g clip-path="url(#60ed63e759)"><g clip-path="url(#06d39e656e)"><path fill="#ffffff" d="M 239.75 515.816406 L 409.9375 515.816406 L 409.9375 542.070312 L 239.75 542.070312 Z M 239.75 515.816406 " fill-opacity="1" fill-rule="nonzero"/></g></g><g clip-path="url(#37af285805)"><g clip-path="url(#8275f2bfae)"><path fill="#ffffff" d="M 239.75 515.816406 L 409.9375 515.816406 L 409.9375 542.070312 L 239.75 542.070312 Z M 239.75 515.816406 " fill-opacity="1" fill-rule="nonzero"/></g></g><g clip-path="url(#2b6d4356d9)"><path fill="#ffffff" d="M 239.75 515.816406 L 409.9375 515.816406 L 409.9375 542.070312 L 239.75 542.070312 Z M 239.75 515.816406 " fill-opacity="1" fill-rule="nonzero"/></g><g clip-path="url(#b61d1dc67f)"><g clip-path="url(#edf8ab9e3b)"><path fill="#ffffff" d="M 411.132812 515.816406 L 450.707031 515.816406 L 450.707031 542.070312 L 411.132812 542.070312 Z M 411.132812 515.816406 " fill-opacity="1" fill-rule="nonzero"/></g></g><g clip-path="url(#1c9b1af3a7)"><path fill="#ffffff" d="M 411.132812 515.816406 L 450.707031 515.816406 L 450.707031 542.070312 L 411.132812 542.070312 Z M 411.132812 515.816406 " fill-opacity="1" fill-rule="nonzero"/></g><g clip-path="url(#c21bc97d90)"><g clip-path="url(#22237339a5)"><path fill="#ffffff" d="M 451.582031 515.816406 L 561.816406 515.816406 L 561.816406 542.070312 L 451.582031 542.070312 Z M 451.582031 515.816406 " fill-opacity="1" fill-rule="nonzero"/></g></g><g clip-path="url(#ce9ce1028a)"><g clip-path="url(#84bbeac547)"><path fill="#ffffff" d="M 451.582031 515.816406 L 561.816406 515.816406 L 561.816406 542.070312 L 451.582031 542.070312 Z M 451.582031 515.816406 " fill-opacity="1" fill-rule="nonzero"/></g></g><g clip-path="url(#53c4fdd83a)"><path fill="#ffffff" d="M 451.582031 515.816406 L 561.816406 515.816406 L 561.816406 542.070312 L 451.582031 542.070312 Z M 451.582031 515.816406 " fill-opacity="1" fill-rule="nonzero"/></g><g clip-path="url(#b841c2d1c4)"><g clip-path="url(#34c75a760c)"><path fill="#ffffff" d="M 451.582031 515.816406 L 561.816406 515.816406 L 561.816406 542.070312 L 451.582031 542.070312 Z M 451.582031 515.816406 " fill-opacity="1" fill-rule="nonzero"/></g></g><g clip-path="url(#68b38e363c)"><g clip-path="url(#a4d6b7fef5)"><path fill="#ffffff" d="M 451.582031 515.816406 L 561.816406 515.816406 L 561.816406 542.070312 L 451.582031 542.070312 Z M 451.582031 515.816406 " fill-opacity="1" fill-rule="nonzero"/></g></g><g clip-path="url(#a0f31379d1)"><g clip-path="url(#5431213205)"><path fill="#ffffff" d="M 451.582031 515.816406 L 561.816406 515.816406 L 561.816406 542.070312 L 451.582031 542.070312 Z M 451.582031 515.816406 " fill-opacity="1" fill-rule="nonzero"/></g></g><g clip-path="url(#a89cb7c7d0)"><path fill="#ffffff" d="M 562.835938 515.816406 L 673.144531 515.816406 L 673.144531 542.070312 L 562.835938 542.070312 Z M 562.835938 515.816406 " fill-opacity="1" fill-rule="nonzero"/></g><g clip-path="url(#8e598873ea)"><path fill="#ffffff" d="M 562.835938 515.816406 L 673.144531 515.816406 L 673.144531 542.070312 L 562.835938 542.070312 Z M 562.835938 515.816406 " fill-opacity="1" fill-rule="nonzero"/></g><g clip-path="url(#258937c896)"><g clip-path="url(#927b3f4c8b)"><path fill="#ffffff" d="M 562.835938 515.816406 L 673.144531 515.816406 L 673.144531 542.070312 L 562.835938 542.070312 Z M 562.835938 515.816406 " fill-opacity="1" fill-rule="nonzero"/></g></g><g clip-path="url(#639c9e81fc)"><g clip-path="url(#defa617811)"><path fill="#ffffff" d="M 562.835938 515.816406 L 673.144531 515.816406 L 673.144531 542.070312 L 562.835938 542.070312 Z M 562.835938 515.816406 " fill-opacity="1" fill-rule="nonzero"/></g></g><g clip-path="url(#7e730be9ff)"><path fill="#ffffff" d="M 562.835938 515.816406 L 673.144531 515.816406 L 673.144531 542.070312 L 562.835938 542.070312 Z M 562.835938 515.816406 " fill-opacity="1" fill-rule="nonzero"/></g><g clip-path="url(#f7887231cd)"><g clip-path="url(#bee11c4fb2)"><path fill="#ffffff" d="M 562.835938 515.816406 L 673.144531 515.816406 L 673.144531 542.070312 L 562.835938 542.070312 Z M 562.835938 515.816406 " fill-opacity="1" fill-rule="nonzero"/></g></g><g clip-path="url(#a9b6e75ebe)"><g clip-path="url(#1597a2c2c6)"><path fill="#ffffff" d="M 562.835938 515.816406 L 673.144531 515.816406 L 673.144531 542.070312 L 562.835938 542.070312 Z M 562.835938 515.816406 " fill-opacity="1" fill-rule="nonzero"/></g></g></svg>